<svg width="12" height="29" viewBox="0 0 12 29" fill="none" xmlns="http://www.w3.org/2000/svg">
<g clip-path="url(#clip0_7214_26799)">
<g clip-path="url(#clip1_7214_26799)">
<path d="M6.00086 25.9314C8.02278 25.9314 9.66188 24.2923 9.66188 22.2704C9.66188 20.2485 8.02278 18.6094 6.00086 18.6094C3.97894 18.6094 2.33984 20.2485 2.33984 22.2704C2.33984 24.2923 3.97894 25.9314 6.00086 25.9314Z" fill="#EF4444"/>
<path d="M6 10.0625V22.2659" stroke="#EF4444" stroke-width="2.34375" stroke-miterlimit="10" stroke-linecap="round"/>
</g>
<g clip-path="url(#clip2_7214_26799)">
<path d="M6.4064 8.44412H9.25385M6.4064 5.18988H9.25385M6.4064 11.6984H9.25385M11.6945 22.1933C11.6945 25.3865 9.15216 27.9695 5.99962 27.9695C2.84707 27.9695 0.304701 25.3865 0.304701 22.1933C0.302682 21.2657 0.523287 20.3512 0.947986 19.5266C1.37268 18.702 1.98908 17.9913 2.74538 17.4543V3.61361C2.74538 2.75053 3.08824 1.92281 3.69852 1.31252C4.30881 0.702231 5.13654 0.359375 5.99962 0.359375C6.86269 0.359375 7.69042 0.702231 8.30071 1.31252C8.911 1.92281 9.25385 2.75053 9.25385 3.61361V17.4441C10.0116 17.9821 10.6288 18.6944 11.0536 19.5209C11.4784 20.3475 11.6982 21.264 11.6945 22.1933Z" stroke="#CBD5E1" stroke-width="0.585938" stroke-linecap="round" stroke-linejoin="round"/>
</g>
</g>
<defs>
<clipPath id="clip0_7214_26799">
<rect width="12" height="28.2712" fill="white"/>
</clipPath>
<clipPath id="clip1_7214_26799">
<rect width="7.32203" height="17.0847" fill="white" transform="translate(2.33984 8.84375)"/>
</clipPath>
<clipPath id="clip2_7214_26799">
<rect width="12" height="28.2712" fill="white"/>
</clipPath>
</defs>
</svg>
