<svg width="24" height="24" viewBox="0 0 24 24" fill="none" xmlns="http://www.w3.org/2000/svg">
<path d="M7.54752 21.7512C16.6042 21.7512 21.5578 14.2479 21.5578 7.74101C21.5578 7.52789 21.5578 7.31573 21.5434 7.10453C22.507 6.40748 23.3389 5.54441 24 4.55573C23.1014 4.95413 22.148 5.21528 21.1718 5.33045C22.1998 4.71514 22.9692 3.74723 23.3366 2.60693C22.3701 3.18054 21.3126 3.58475 20.2099 3.80213C19.4675 3.01271 18.4856 2.48997 17.4162 2.31481C16.3468 2.13966 15.2494 2.32184 14.294 2.83318C13.3385 3.34452 12.5782 4.1565 12.1307 5.14348C11.6833 6.13045 11.5735 7.23739 11.8186 8.29301C9.8609 8.19481 7.94576 7.68604 6.19745 6.79973C4.44915 5.91343 2.90676 4.66939 1.6704 3.14837C1.04073 4.23236 0.847872 5.5156 1.1311 6.73679C1.41433 7.95798 2.15234 9.02532 3.19488 9.72149C2.41123 9.69853 1.64465 9.48712 0.96 9.10517V9.16757C0.960311 10.3044 1.35385 11.4062 2.07387 12.2859C2.79389 13.1657 3.79606 13.7693 4.9104 13.9944C4.18548 14.1922 3.42487 14.2211 2.68704 14.0789C3.00181 15.0573 3.61443 15.9128 4.43924 16.5259C5.26405 17.139 6.25983 17.479 7.28736 17.4985C6.26644 18.3009 5.09731 18.8942 3.84687 19.2444C2.59643 19.5947 1.28921 19.6949 0 19.5394C2.25183 20.9844 4.87192 21.7509 7.54752 21.7474" fill="#1DA1F2"/>
</svg>
