<svg width="24" height="24" viewBox="0 0 24 24" fill="none" xmlns="http://www.w3.org/2000/svg">
<g clip-path="url(#clip0_5537_27041)">
<path d="M23.5221 6.18687C23.3864 5.67629 23.119 5.2103 22.7466 4.83553C22.3743 4.46077 21.91 4.19038 21.4003 4.05142C19.5239 3.54688 12.0239 3.54688 12.0239 3.54688C12.0239 3.54688 4.52393 3.54688 2.64756 4.05142C2.13786 4.19038 1.67358 4.46077 1.30121 4.83553C0.928842 5.2103 0.661431 5.67629 0.525744 6.18687C0.0239258 8.07142 0.0239258 12.0014 0.0239258 12.0014C0.0239258 12.0014 0.0239258 15.9314 0.525744 17.816C0.661431 18.3266 0.928842 18.7925 1.30121 19.1673C1.67358 19.5421 2.13786 19.8125 2.64756 19.9514C4.52393 20.456 12.0239 20.456 12.0239 20.456C12.0239 20.456 19.5239 20.456 21.4003 19.9514C21.91 19.8125 22.3743 19.5421 22.7466 19.1673C23.119 18.7925 23.3864 18.3266 23.5221 17.816C24.0239 15.9314 24.0239 12.0014 24.0239 12.0014C24.0239 12.0014 24.0239 8.07142 23.5221 6.18687Z" fill="#FF0302"/>
<path d="M9.56934 15.567V8.42969L15.8421 11.9983L9.56934 15.567Z" fill="#FEFEFE"/>
</g>
<defs>
<clipPath id="clip0_5537_27041">
<rect width="24" height="24" fill="white"/>
</clipPath>
</defs>
</svg>
