<svg width="131" height="66" viewBox="0 0 131 66" fill="none" xmlns="http://www.w3.org/2000/svg">
<path d="M129.332 1C108.536 2.73299 107.248 44.2218 86.6654 49C69.6922 52.9402 61.0975 30.5738 43.9987 33C25.4524 35.6316 19.5175 58.9382 1.33203 65H129.332V1Z" fill="#ECFDF3"/>
<path d="M129.332 1C108.536 2.73299 107.248 44.2218 86.6654 49C69.6922 52.9402 61.0975 30.5738 43.9987 33C25.4524 35.6316 19.5175 58.9382 1.33203 65H129.332V1Z" fill="url(#paint0_linear_5781_27422)"/>
<path d="M1.33203 65C19.5175 58.9382 25.4524 35.6316 43.9987 33C61.0975 30.5738 69.6922 52.9402 86.6654 49C107.248 44.2218 108.536 2.73299 129.332 1" stroke="#12B76A" stroke-width="2" stroke-linecap="round" stroke-linejoin="round"/>
<defs>
<linearGradient id="paint0_linear_5781_27422" x1="65.332" y1="1" x2="65.332" y2="65" gradientUnits="userSpaceOnUse">
<stop offset="0.641167" stop-color="white" stop-opacity="0"/>
<stop offset="1" stop-color="white"/>
</linearGradient>
</defs>
</svg>
