<svg width="57" height="57" viewBox="0 0 57 57" fill="none" xmlns="http://www.w3.org/2000/svg">
<path d="M22.3821 38.3767H20.1351V21.1357H14.0895V19.1641H28.3998V21.1357H22.3821V38.3767Z" fill="white"/>
<path d="M33.6863 38.6423C32.7308 38.6423 31.8943 38.5711 31.1757 38.43C30.4582 38.29 29.7932 38.0765 29.1807 37.7883V35.5926C29.7313 35.8726 30.3788 36.1293 31.1243 36.3626C31.8692 36.5948 32.7326 36.7103 33.7143 36.7103C34.3175 36.7103 34.8956 36.6403 35.448 36.5003C35.9998 36.3603 36.4922 36.1421 36.925 35.8446C37.359 35.546 37.7002 35.165 37.9493 34.7013C38.1996 34.2364 38.325 33.6834 38.325 33.0423C38.325 32.526 38.213 32.0687 37.989 31.6703C37.7662 31.2725 37.4138 30.8875 36.932 30.5153C36.4513 30.142 35.8202 29.7406 35.0397 29.3113C34.3735 28.9181 33.7756 28.504 33.2453 28.07C32.7162 27.636 32.2986 27.1285 31.9923 26.5463C31.6855 25.963 31.5327 25.2554 31.5327 24.423C31.5327 23.5305 31.6989 22.74 32.032 22.0523C32.3645 21.3634 32.8218 20.7847 33.404 20.3163C33.9873 19.8485 34.6576 19.4938 35.4153 19.2523C36.1725 19.0114 36.9763 18.8906 37.8257 18.8906C38.8337 18.8906 39.7092 18.9921 40.453 19.194C41.1979 19.3946 41.9166 19.6665 42.609 20.0083L41.755 21.9006C41.265 21.6381 40.6758 21.399 39.9887 21.1843C39.3009 20.9696 38.5799 20.8623 37.8257 20.8623C37.275 20.8623 36.7605 20.9346 36.2833 21.0793C35.8056 21.224 35.3873 21.441 35.028 21.7303C34.6687 22.0185 34.3875 22.3755 34.1857 22.8013C33.985 23.226 33.8847 23.7183 33.8847 24.2783C33.8847 24.8476 33.992 25.3207 34.2067 25.697C34.4213 26.0738 34.7363 26.4156 35.1517 26.7236C35.5682 27.0305 36.0832 27.363 36.6963 27.7223C37.4757 28.1767 38.1628 28.63 38.759 29.0826C39.3546 29.5341 39.8189 30.055 40.152 30.646C40.4845 31.2375 40.6513 31.9795 40.6513 32.872C40.6513 33.8368 40.4822 34.6803 40.145 35.4036C39.809 36.1258 39.3295 36.7255 38.7077 37.2026C38.0852 37.6804 37.3485 38.0397 36.498 38.2806C35.6487 38.5215 34.7112 38.6423 33.6863 38.6423Z" fill="white"/>
</svg>
