<svg width="175" height="100" viewBox="0 0 175 100" fill="none" xmlns="http://www.w3.org/2000/svg">
<path d="M101.865 68.45C100.355 68.45 98.9946 68.2 97.7846 67.7C96.5846 67.19 95.5896 66.47 94.7996 65.54C94.0196 64.61 93.5096 63.505 93.2696 62.225L95.5196 61.85C95.8796 63.25 96.6396 64.35 97.7996 65.15C98.9596 65.94 100.345 66.335 101.955 66.335C103.015 66.335 103.965 66.17 104.805 65.84C105.645 65.5 106.305 65.02 106.785 64.4C107.265 63.78 107.505 63.045 107.505 62.195C107.505 61.635 107.405 61.16 107.205 60.77C107.005 60.37 106.74 60.04 106.41 59.78C106.08 59.52 105.72 59.305 105.33 59.135C104.94 58.955 104.56 58.81 104.19 58.7L98.7146 57.065C98.0546 56.875 97.4446 56.635 96.8846 56.345C96.3246 56.045 95.8346 55.69 95.4146 55.28C95.0046 54.86 94.6846 54.37 94.4546 53.81C94.2246 53.25 94.1096 52.61 94.1096 51.89C94.1096 50.67 94.4296 49.615 95.0696 48.725C95.7096 47.835 96.5846 47.15 97.6946 46.67C98.8046 46.19 100.07 45.955 101.49 45.965C102.93 45.965 104.215 46.22 105.345 46.73C106.485 47.24 107.425 47.97 108.165 48.92C108.905 49.86 109.395 50.975 109.635 52.265L107.325 52.685C107.175 51.745 106.83 50.93 106.29 50.24C105.75 49.55 105.06 49.02 104.22 48.65C103.39 48.27 102.475 48.075 101.475 48.065C100.505 48.065 99.6396 48.23 98.8796 48.56C98.1296 48.88 97.5346 49.32 97.0946 49.88C96.6546 50.44 96.4346 51.08 96.4346 51.8C96.4346 52.53 96.6346 53.115 97.0346 53.555C97.4446 53.995 97.9446 54.34 98.5346 54.59C99.1346 54.84 99.7146 55.045 100.275 55.205L104.505 56.45C104.945 56.57 105.46 56.745 106.05 56.975C106.65 57.195 107.23 57.515 107.79 57.935C108.36 58.345 108.83 58.885 109.2 59.555C109.57 60.225 109.755 61.075 109.755 62.105C109.755 63.105 109.555 64 109.155 64.79C108.765 65.58 108.21 66.245 107.49 66.785C106.78 67.325 105.945 67.735 104.985 68.015C104.035 68.305 102.995 68.45 101.865 68.45ZM117.486 68.45C116.266 68.45 115.241 68.23 114.411 67.79C113.591 67.35 112.976 66.765 112.566 66.035C112.156 65.305 111.951 64.51 111.951 63.65C111.951 62.77 112.126 62.02 112.476 61.4C112.836 60.77 113.321 60.255 113.931 59.855C114.551 59.455 115.266 59.15 116.076 58.94C116.896 58.74 117.801 58.565 118.791 58.415C119.791 58.255 120.766 58.12 121.716 58.01C122.676 57.89 123.516 57.775 124.236 57.665L123.456 58.145C123.486 56.545 123.176 55.36 122.526 54.59C121.876 53.82 120.746 53.435 119.136 53.435C118.026 53.435 117.086 53.685 116.316 54.185C115.556 54.685 115.021 55.475 114.711 56.555L112.566 55.925C112.936 54.475 113.681 53.35 114.801 52.55C115.921 51.75 117.376 51.35 119.166 51.35C120.646 51.35 121.901 51.63 122.931 52.19C123.971 52.74 124.706 53.54 125.136 54.59C125.336 55.06 125.466 55.585 125.526 56.165C125.586 56.745 125.616 57.335 125.616 57.935V68H123.651V63.935L124.221 64.175C123.671 65.565 122.816 66.625 121.656 67.355C120.496 68.085 119.106 68.45 117.486 68.45ZM117.741 66.545C118.771 66.545 119.671 66.36 120.441 65.99C121.211 65.62 121.831 65.115 122.301 64.475C122.771 63.825 123.076 63.095 123.216 62.285C123.336 61.765 123.401 61.195 123.411 60.575C123.421 59.945 123.426 59.475 123.426 59.165L124.266 59.6C123.516 59.7 122.701 59.8 121.821 59.9C120.951 60 120.091 60.115 119.241 60.245C118.401 60.375 117.641 60.53 116.961 60.71C116.501 60.84 116.056 61.025 115.626 61.265C115.196 61.495 114.841 61.805 114.561 62.195C114.291 62.585 114.156 63.07 114.156 63.65C114.156 64.12 114.271 64.575 114.501 65.015C114.741 65.455 115.121 65.82 115.641 66.11C116.171 66.4 116.871 66.545 117.741 66.545ZM129.821 48.725V46.25H132.026V48.725H129.821ZM129.821 68V51.8H132.026V68H129.821ZM142.568 68.435C140.668 68.435 139.103 68.025 137.873 67.205C136.653 66.385 135.903 65.245 135.623 63.785L137.873 63.41C138.113 64.33 138.658 65.065 139.508 65.615C140.368 66.155 141.428 66.425 142.688 66.425C143.918 66.425 144.888 66.17 145.598 65.66C146.308 65.14 146.663 64.435 146.663 63.545C146.663 63.045 146.548 62.64 146.318 62.33C146.098 62.01 145.643 61.715 144.953 61.445C144.263 61.175 143.233 60.855 141.863 60.485C140.393 60.085 139.243 59.685 138.413 59.285C137.583 58.885 136.993 58.425 136.643 57.905C136.293 57.375 136.118 56.73 136.118 55.97C136.118 55.05 136.378 54.245 136.898 53.555C137.418 52.855 138.138 52.315 139.058 51.935C139.978 51.545 141.048 51.35 142.268 51.35C143.488 51.35 144.578 51.55 145.538 51.95C146.508 52.34 147.288 52.89 147.878 53.6C148.468 54.31 148.818 55.135 148.928 56.075L146.678 56.48C146.528 55.53 146.053 54.78 145.253 54.23C144.463 53.67 143.458 53.38 142.238 53.36C141.088 53.33 140.153 53.55 139.433 54.02C138.713 54.48 138.353 55.095 138.353 55.865C138.353 56.295 138.483 56.665 138.743 56.975C139.003 57.275 139.473 57.56 140.153 57.83C140.843 58.1 141.823 58.395 143.093 58.715C144.583 59.095 145.753 59.495 146.603 59.915C147.453 60.335 148.058 60.83 148.418 61.4C148.778 61.97 148.958 62.675 148.958 63.515C148.958 65.045 148.388 66.25 147.248 67.13C146.118 68 144.558 68.435 142.568 68.435ZM159.14 68.45C157.56 68.45 156.19 68.1 155.03 67.4C153.88 66.7 152.985 65.715 152.345 64.445C151.705 63.175 151.385 61.685 151.385 59.975C151.385 58.205 151.7 56.675 152.33 55.385C152.96 54.095 153.845 53.1 154.985 52.4C156.135 51.7 157.49 51.35 159.05 51.35C160.65 51.35 162.015 51.72 163.145 52.46C164.275 53.19 165.13 54.24 165.71 55.61C166.29 56.98 166.555 58.615 166.505 60.515H164.255V59.735C164.215 57.635 163.76 56.05 162.89 54.98C162.03 53.91 160.77 53.375 159.11 53.375C157.37 53.375 156.035 53.94 155.105 55.07C154.185 56.2 153.725 57.81 153.725 59.9C153.725 61.94 154.185 63.525 155.105 64.655C156.035 65.775 157.35 66.335 159.05 66.335C160.21 66.335 161.22 66.07 162.08 65.54C162.95 65 163.635 64.225 164.135 63.215L166.19 64.01C165.55 65.42 164.605 66.515 163.355 67.295C162.115 68.065 160.71 68.45 159.14 68.45ZM152.945 60.515V58.67H165.32V60.515H152.945ZM170.133 48.725V46.25H172.338V48.725H170.133ZM170.133 68V51.8H172.338V68H170.133Z" fill="black"/>
<path d="M39.8913 67.6365H35.8788V36.849H25.083V33.3281H50.6372V36.849H39.8913V67.6365Z" fill="black"/>
<path d="M60.0773 68.1068C58.3711 68.1068 56.8773 67.9797 55.594 67.7276C54.3127 67.4776 53.1252 67.0964 52.0315 66.5818V62.6609C53.0148 63.1609 54.1711 63.6193 55.5023 64.0359C56.8325 64.4505 58.3742 64.6568 60.1273 64.6568C61.2044 64.6568 62.2367 64.5318 63.2232 64.2818C64.2086 64.0318 65.0877 63.6422 65.8607 63.1109C66.6357 62.5776 67.245 61.8974 67.6898 61.0693C68.1367 60.2391 68.3607 59.2516 68.3607 58.1068C68.3607 57.1849 68.1607 56.3682 67.7607 55.6568C67.3627 54.9464 66.7336 54.2589 65.8732 53.5943C65.0148 52.9276 63.8877 52.2109 62.494 51.4443C61.3044 50.7422 60.2367 50.0026 59.2898 49.2276C58.345 48.4526 57.5992 47.5464 57.0523 46.5068C56.5044 45.4651 56.2315 44.2016 56.2315 42.7151C56.2315 41.1214 56.5284 39.7099 57.1232 38.4818C57.7169 37.2516 58.5336 36.2182 59.5732 35.3818C60.6148 34.5464 61.8117 33.913 63.1648 33.4818C64.5169 33.0516 65.9523 32.8359 67.469 32.8359C69.269 32.8359 70.8325 33.0172 72.1607 33.3776C73.4909 33.7359 74.7742 34.2214 76.0107 34.8318L74.4857 38.2109C73.6107 37.7422 72.5586 37.3151 71.3315 36.9318C70.1034 36.5484 68.8159 36.3568 67.469 36.3568C66.4857 36.3568 65.5669 36.4859 64.7148 36.7443C63.8617 37.0026 63.1148 37.3901 62.4732 37.9068C61.8315 38.4214 61.3294 39.0589 60.969 39.8193C60.6107 40.5776 60.4315 41.4568 60.4315 42.4568C60.4315 43.4734 60.6232 44.3182 61.0065 44.9901C61.3898 45.663 61.9523 46.2734 62.694 46.8234C63.4377 47.3714 64.3575 47.9651 65.4523 48.6068C66.844 49.4182 68.0711 50.2276 69.1357 51.0359C70.1992 51.8422 71.0284 52.7724 71.6232 53.8276C72.2169 54.8839 72.5148 56.2089 72.5148 57.8026C72.5148 59.5255 72.2127 61.0318 71.6107 62.3234C71.0107 63.613 70.1544 64.6839 69.044 65.5359C67.9325 66.3891 66.6169 67.0307 65.0982 67.4609C63.5815 67.8911 61.9075 68.1068 60.0773 68.1068Z" fill="black"/>
</svg>
