<svg width="237" height="39" viewBox="0 0 237 39" fill="none" xmlns="http://www.w3.org/2000/svg">
<path d="M25.9301 29.9645H23.322V9.9526H16.3047V7.66406H32.9149V9.9526H25.9301V29.9645Z" fill="black"/>
<path d="M39.0501 30.2698C37.941 30.2698 36.9701 30.1872 36.1359 30.0233C35.3031 29.8608 34.5312 29.613 33.8203 29.2785V26.73C34.4595 27.055 35.211 27.3529 36.0764 27.6238C36.941 27.8932 37.9431 28.0273 39.0826 28.0273C39.7827 28.0273 40.4537 27.946 41.0949 27.7835C41.7354 27.621 42.3069 27.3678 42.8093 27.0225C43.313 26.6758 43.7091 26.2337 43.9982 25.6954C44.2887 25.1558 44.4343 24.5139 44.4343 23.7698C44.4343 23.1706 44.3043 22.6397 44.0443 22.1773C43.7856 21.7155 43.3767 21.2686 42.8174 20.8367C42.2595 20.4033 41.5269 19.9375 40.6209 19.4392C39.8477 18.9828 39.1537 18.5021 38.5382 17.9983C37.9241 17.4946 37.4393 16.9055 37.0839 16.2298C36.7277 15.5527 36.5503 14.7314 36.5503 13.7652C36.5503 12.7293 36.7433 11.8118 37.1299 11.0135C37.5158 10.2139 38.0467 9.54224 38.7224 8.99854C39.3995 8.45552 40.1774 8.04385 41.057 7.76354C41.9358 7.48391 42.8689 7.34375 43.8547 7.34375C45.0247 7.34375 46.041 7.46156 46.9043 7.69583C47.7689 7.92875 48.6031 8.24427 49.4068 8.64104L48.4155 10.8375C47.8468 10.5328 47.1629 10.2552 46.3653 10.006C45.567 9.75688 44.7302 9.63229 43.8547 9.63229C43.2155 9.63229 42.6183 9.71625 42.0645 9.88417C41.5099 10.0521 41.0245 10.304 40.6074 10.6398C40.1903 10.9743 39.864 11.3886 39.6297 11.8829C39.3968 12.3758 39.2803 12.9473 39.2803 13.5973C39.2803 14.2581 39.4049 14.8072 39.6541 15.244C39.9032 15.6814 40.2689 16.0781 40.7509 16.4356C41.2344 16.7918 41.8322 17.1777 42.5439 17.5948C43.4484 18.1222 44.246 18.6483 44.938 19.1737C45.6293 19.6978 46.1683 20.3024 46.5549 20.9883C46.9408 21.6749 47.1345 22.5361 47.1345 23.5721C47.1345 24.692 46.9381 25.671 46.5468 26.5106C46.1568 27.3489 45.6002 28.0449 44.8784 28.5987C44.156 29.1533 43.3008 29.5704 42.3136 29.85C41.3278 30.1296 40.2397 30.2698 39.0501 30.2698Z" fill="black"/>
<path d="M67.2309 32V10.4H75.5709C75.7809 10.4 76.0159 10.41 76.2759 10.43C76.5459 10.44 76.8159 10.47 77.0859 10.52C78.2159 10.69 79.1709 11.085 79.9509 11.705C80.7409 12.315 81.3359 13.085 81.7359 14.015C82.1459 14.945 82.3509 15.975 82.3509 17.105C82.3509 18.225 82.1459 19.25 81.7359 20.18C81.3259 21.11 80.7259 21.885 79.9359 22.505C79.1559 23.115 78.2059 23.505 77.0859 23.675C76.8159 23.715 76.5459 23.745 76.2759 23.765C76.0159 23.785 75.7809 23.795 75.5709 23.795H69.4359V32H67.2309ZM69.4359 21.695H75.5109C75.6909 21.695 75.9009 21.685 76.1409 21.665C76.3809 21.645 76.6159 21.61 76.8459 21.56C77.5859 21.4 78.1909 21.095 78.6609 20.645C79.1409 20.195 79.4959 19.66 79.7259 19.04C79.9659 18.42 80.0859 17.775 80.0859 17.105C80.0859 16.435 79.9659 15.79 79.7259 15.17C79.4959 14.54 79.1409 14 78.6609 13.55C78.1909 13.1 77.5859 12.795 76.8459 12.635C76.6159 12.585 76.3809 12.555 76.1409 12.545C75.9009 12.525 75.6909 12.515 75.5109 12.515H69.4359V21.695ZM85.3363 32V15.8H87.3163V19.7L86.9263 19.19C87.1063 18.71 87.3413 18.27 87.6313 17.87C87.9213 17.46 88.2363 17.125 88.5763 16.865C88.9963 16.495 89.4863 16.215 90.0463 16.025C90.6063 15.825 91.1713 15.71 91.7413 15.68C92.3113 15.64 92.8313 15.68 93.3013 15.8V17.87C92.7113 17.72 92.0663 17.685 91.3663 17.765C90.6663 17.845 90.0213 18.125 89.4313 18.605C88.8913 19.025 88.4863 19.53 88.2163 20.12C87.9463 20.7 87.7663 21.32 87.6763 21.98C87.5863 22.63 87.5413 23.275 87.5413 23.915V32H85.3363ZM102.619 32.45C101.009 32.45 99.6339 32.085 98.4939 31.355C97.3539 30.625 96.4789 29.615 95.8689 28.325C95.2589 27.035 94.9539 25.555 94.9539 23.885C94.9539 22.185 95.2639 20.695 95.8839 19.415C96.5039 18.135 97.3839 17.14 98.5239 16.43C99.6739 15.71 101.039 15.35 102.619 15.35C104.239 15.35 105.619 15.715 106.759 16.445C107.909 17.165 108.784 18.17 109.384 19.46C109.994 20.74 110.299 22.215 110.299 23.885C110.299 25.585 109.994 27.08 109.384 28.37C108.774 29.65 107.894 30.65 106.744 31.37C105.594 32.09 104.219 32.45 102.619 32.45ZM102.619 30.335C104.419 30.335 105.759 29.74 106.639 28.55C107.519 27.35 107.959 25.795 107.959 23.885C107.959 21.925 107.514 20.365 106.624 19.205C105.744 18.045 104.409 17.465 102.619 17.465C101.409 17.465 100.409 17.74 99.6189 18.29C98.8389 18.83 98.2539 19.585 97.8639 20.555C97.4839 21.515 97.2939 22.625 97.2939 23.885C97.2939 25.835 97.7439 27.4 98.6439 28.58C99.5439 29.75 100.869 30.335 102.619 30.335ZM115.213 32V14.6C115.213 14.18 115.233 13.765 115.273 13.355C115.323 12.945 115.418 12.555 115.558 12.185C115.698 11.805 115.918 11.455 116.218 11.135C116.548 10.775 116.908 10.515 117.298 10.355C117.688 10.185 118.093 10.075 118.513 10.025C118.943 9.975 119.363 9.95 119.773 9.95H121.843V11.81H119.923C119.083 11.81 118.453 12.015 118.033 12.425C117.623 12.835 117.418 13.48 117.418 14.36V32H115.213ZM112.408 17.69V15.8H121.843V17.69H112.408ZM130.512 32.45C128.932 32.45 127.562 32.1 126.402 31.4C125.252 30.7 124.357 29.715 123.717 28.445C123.077 27.175 122.757 25.685 122.757 23.975C122.757 22.205 123.072 20.675 123.702 19.385C124.332 18.095 125.217 17.1 126.357 16.4C127.507 15.7 128.862 15.35 130.422 15.35C132.022 15.35 133.387 15.72 134.517 16.46C135.647 17.19 136.502 18.24 137.082 19.61C137.662 20.98 137.927 22.615 137.877 24.515H135.627V23.735C135.587 21.635 135.132 20.05 134.262 18.98C133.402 17.91 132.142 17.375 130.482 17.375C128.742 17.375 127.407 17.94 126.477 19.07C125.557 20.2 125.097 21.81 125.097 23.9C125.097 25.94 125.557 27.525 126.477 28.655C127.407 29.775 128.722 30.335 130.422 30.335C131.582 30.335 132.592 30.07 133.452 29.54C134.322 29 135.007 28.225 135.507 27.215L137.562 28.01C136.922 29.42 135.977 30.515 134.727 31.295C133.487 32.065 132.082 32.45 130.512 32.45ZM124.317 24.515V22.67H136.692V24.515H124.317ZM147.25 32.435C145.35 32.435 143.785 32.025 142.555 31.205C141.335 30.385 140.585 29.245 140.305 27.785L142.555 27.41C142.795 28.33 143.34 29.065 144.19 29.615C145.05 30.155 146.11 30.425 147.37 30.425C148.6 30.425 149.57 30.17 150.28 29.66C150.99 29.14 151.345 28.435 151.345 27.545C151.345 27.045 151.23 26.64 151 26.33C150.78 26.01 150.325 25.715 149.635 25.445C148.945 25.175 147.915 24.855 146.545 24.485C145.075 24.085 143.925 23.685 143.095 23.285C142.265 22.885 141.675 22.425 141.325 21.905C140.975 21.375 140.8 20.73 140.8 19.97C140.8 19.05 141.06 18.245 141.58 17.555C142.1 16.855 142.82 16.315 143.74 15.935C144.66 15.545 145.73 15.35 146.95 15.35C148.17 15.35 149.26 15.55 150.22 15.95C151.19 16.34 151.97 16.89 152.56 17.6C153.15 18.31 153.5 19.135 153.61 20.075L151.36 20.48C151.21 19.53 150.735 18.78 149.935 18.23C149.145 17.67 148.14 17.38 146.92 17.36C145.77 17.33 144.835 17.55 144.115 18.02C143.395 18.48 143.035 19.095 143.035 19.865C143.035 20.295 143.165 20.665 143.425 20.975C143.685 21.275 144.155 21.56 144.835 21.83C145.525 22.1 146.505 22.395 147.775 22.715C149.265 23.095 150.435 23.495 151.285 23.915C152.135 24.335 152.74 24.83 153.1 25.4C153.46 25.97 153.64 26.675 153.64 27.515C153.64 29.045 153.07 30.25 151.93 31.13C150.8 32 149.24 32.435 147.25 32.435ZM163.012 32.435C161.112 32.435 159.547 32.025 158.317 31.205C157.097 30.385 156.347 29.245 156.067 27.785L158.317 27.41C158.557 28.33 159.102 29.065 159.952 29.615C160.812 30.155 161.872 30.425 163.132 30.425C164.362 30.425 165.332 30.17 166.042 29.66C166.752 29.14 167.107 28.435 167.107 27.545C167.107 27.045 166.992 26.64 166.762 26.33C166.542 26.01 166.087 25.715 165.397 25.445C164.707 25.175 163.677 24.855 162.307 24.485C160.837 24.085 159.687 23.685 158.857 23.285C158.027 22.885 157.437 22.425 157.087 21.905C156.737 21.375 156.562 20.73 156.562 19.97C156.562 19.05 156.822 18.245 157.342 17.555C157.862 16.855 158.582 16.315 159.502 15.935C160.422 15.545 161.492 15.35 162.712 15.35C163.932 15.35 165.022 15.55 165.982 15.95C166.952 16.34 167.732 16.89 168.322 17.6C168.912 18.31 169.262 19.135 169.372 20.075L167.122 20.48C166.972 19.53 166.497 18.78 165.697 18.23C164.907 17.67 163.902 17.38 162.682 17.36C161.532 17.33 160.597 17.55 159.877 18.02C159.157 18.48 158.797 19.095 158.797 19.865C158.797 20.295 158.927 20.665 159.187 20.975C159.447 21.275 159.917 21.56 160.597 21.83C161.287 22.1 162.267 22.395 163.537 22.715C165.027 23.095 166.197 23.495 167.047 23.915C167.897 24.335 168.502 24.83 168.862 25.4C169.222 25.97 169.402 26.675 169.402 27.515C169.402 29.045 168.832 30.25 167.692 31.13C166.562 32 165.002 32.435 163.012 32.435ZM173.029 12.725V10.25H175.234V12.725H173.029ZM173.029 32V15.8H175.234V32H173.029ZM186.496 32.45C184.886 32.45 183.511 32.085 182.371 31.355C181.231 30.625 180.356 29.615 179.746 28.325C179.136 27.035 178.831 25.555 178.831 23.885C178.831 22.185 179.141 20.695 179.761 19.415C180.381 18.135 181.261 17.14 182.401 16.43C183.551 15.71 184.916 15.35 186.496 15.35C188.116 15.35 189.496 15.715 190.636 16.445C191.786 17.165 192.661 18.17 193.261 19.46C193.871 20.74 194.176 22.215 194.176 23.885C194.176 25.585 193.871 27.08 193.261 28.37C192.651 29.65 191.771 30.65 190.621 31.37C189.471 32.09 188.096 32.45 186.496 32.45ZM186.496 30.335C188.296 30.335 189.636 29.74 190.516 28.55C191.396 27.35 191.836 25.795 191.836 23.885C191.836 21.925 191.391 20.365 190.501 19.205C189.621 18.045 188.286 17.465 186.496 17.465C185.286 17.465 184.286 17.74 183.496 18.29C182.716 18.83 182.131 19.585 181.741 20.555C181.361 21.515 181.171 22.625 181.171 23.885C181.171 25.835 181.621 27.4 182.521 28.58C183.421 29.75 184.746 30.335 186.496 30.335ZM209.185 32V23.735C209.185 22.835 209.1 22.01 208.93 21.26C208.76 20.5 208.485 19.84 208.105 19.28C207.735 18.71 207.25 18.27 206.65 17.96C206.06 17.65 205.34 17.495 204.49 17.495C203.71 17.495 203.02 17.63 202.42 17.9C201.83 18.17 201.33 18.56 200.92 19.07C200.52 19.57 200.215 20.18 200.005 20.9C199.795 21.62 199.69 22.44 199.69 23.36L198.13 23.015C198.13 21.355 198.42 19.96 199 18.83C199.58 17.7 200.38 16.845 201.4 16.265C202.42 15.685 203.59 15.395 204.91 15.395C205.88 15.395 206.725 15.545 207.445 15.845C208.175 16.145 208.79 16.55 209.29 17.06C209.8 17.57 210.21 18.155 210.52 18.815C210.83 19.465 211.055 20.16 211.195 20.9C211.335 21.63 211.405 22.36 211.405 23.09V32H209.185ZM197.47 32V15.8H199.465V19.79H199.69V32H197.47ZM219.932 32.45C218.712 32.45 217.687 32.23 216.857 31.79C216.037 31.35 215.422 30.765 215.012 30.035C214.602 29.305 214.397 28.51 214.397 27.65C214.397 26.77 214.572 26.02 214.922 25.4C215.282 24.77 215.767 24.255 216.377 23.855C216.997 23.455 217.712 23.15 218.522 22.94C219.342 22.74 220.247 22.565 221.237 22.415C222.237 22.255 223.212 22.12 224.162 22.01C225.122 21.89 225.962 21.775 226.682 21.665L225.902 22.145C225.932 20.545 225.622 19.36 224.972 18.59C224.322 17.82 223.192 17.435 221.582 17.435C220.472 17.435 219.532 17.685 218.762 18.185C218.002 18.685 217.467 19.475 217.157 20.555L215.012 19.925C215.382 18.475 216.127 17.35 217.247 16.55C218.367 15.75 219.822 15.35 221.612 15.35C223.092 15.35 224.347 15.63 225.377 16.19C226.417 16.74 227.152 17.54 227.582 18.59C227.782 19.06 227.912 19.585 227.972 20.165C228.032 20.745 228.062 21.335 228.062 21.935V32H226.097V27.935L226.667 28.175C226.117 29.565 225.262 30.625 224.102 31.355C222.942 32.085 221.552 32.45 219.932 32.45ZM220.187 30.545C221.217 30.545 222.117 30.36 222.887 29.99C223.657 29.62 224.277 29.115 224.747 28.475C225.217 27.825 225.522 27.095 225.662 26.285C225.782 25.765 225.847 25.195 225.857 24.575C225.867 23.945 225.872 23.475 225.872 23.165L226.712 23.6C225.962 23.7 225.147 23.8 224.267 23.9C223.397 24 222.537 24.115 221.687 24.245C220.847 24.375 220.087 24.53 219.407 24.71C218.947 24.84 218.502 25.025 218.072 25.265C217.642 25.495 217.287 25.805 217.007 26.195C216.737 26.585 216.602 27.07 216.602 27.65C216.602 28.12 216.717 28.575 216.947 29.015C217.187 29.455 217.567 29.82 218.087 30.11C218.617 30.4 219.317 30.545 220.187 30.545ZM232.267 32V9.95H234.472V32H232.267Z" fill="black"/>
</svg>
